<svg width="984" height="1035" viewBox="0 0 984 1035" fill="none" xmlns="http://www.w3.org/2000/svg">
<g filter="url(#filter0_d)">
<path d="M537.822 707.791C518.181 746.323 486.462 774.983 450.401 796.447C413.289 818.535 371.664 841.72 330.234 831.345C289.715 821.197 270.432 774.732 240.671 743.922C210.823 713.023 166.96 693.421 155.858 650.825C144.403 606.874 155.827 556.267 182.407 520.374C207.159 486.948 254.547 490.339 289.772 469.989C326.124 448.988 350.025 395.007 391.195 399.752C432.174 404.476 445.981 460.588 475.187 491.362C504.101 521.829 549.315 537.664 561.263 578.95C573.668 621.814 557.936 668.33 537.822 707.791Z" fill="url(#paint0_radial)" fill-opacity="0.2"/>
</g>
<g filter="url(#filter1_d)">
<path d="M745.591 805.678C719.561 853.903 677.52 889.77 629.722 916.628C580.531 944.269 525.359 973.282 470.44 960.29C416.728 947.583 391.16 889.424 351.706 850.858C312.137 812.179 253.991 787.638 239.269 734.323C224.079 679.312 239.214 615.973 274.441 571.052C307.248 529.219 370.063 533.47 416.752 508.005C464.937 481.725 496.611 414.164 551.185 420.11C605.504 426.028 623.815 496.261 662.533 534.782C700.865 572.919 760.801 592.746 776.645 644.422C793.094 698.072 772.248 756.29 745.591 805.678Z" fill="url(#paint1_radial)" fill-opacity="0.3"/>
</g>
<path d="M352.859 636.911C393.061 673.447 398.742 726.193 396.557 748L987 748L987 1.7892e-05L-3.26961e-05 6.10352e-05C161.682 97.5116 297.145 198.726 264.372 364.125C231.598 529.525 302.607 591.241 352.859 636.911Z" fill="url(#paint2_linear)"/>
<defs>
<filter id="filter0_d" x="81" y="329" width="555.077" height="575.316" filterUnits="userSpaceOnUse" color-interpolation-filters="sRGB">
<feFlood flood-opacity="0" result="BackgroundImageFix"/>
<feColorMatrix in="SourceAlpha" type="matrix" values="0 0 0 0 0 0 0 0 0 0 0 0 0 0 0 0 0 0 127 0" result="hardAlpha"/>
<feOffset/>
<feGaussianBlur stdDeviation="35"/>
<feColorMatrix type="matrix" values="0 0 0 0 0 0 0 0 0 0 0 0 0 0 0 0 0 0 0.03 0"/>
<feBlend mode="normal" in2="BackgroundImageFix" result="effect1_dropShadow"/>
<feBlend mode="normal" in="SourceGraphic" in2="effect1_dropShadow" result="shape"/>
</filter>
<filter id="filter1_d" x="162.856" y="349.134" width="690.144" height="684.909" filterUnits="userSpaceOnUse" color-interpolation-filters="sRGB">
<feFlood flood-opacity="0" result="BackgroundImageFix"/>
<feColorMatrix in="SourceAlpha" type="matrix" values="0 0 0 0 0 0 0 0 0 0 0 0 0 0 0 0 0 0 127 0" result="hardAlpha"/>
<feOffset/>
<feGaussianBlur stdDeviation="35"/>
<feColorMatrix type="matrix" values="0 0 0 0 0 0 0 0 0 0 0 0 0 0 0 0 0 0 0.03 0"/>
<feBlend mode="normal" in2="BackgroundImageFix" result="effect1_dropShadow"/>
<feBlend mode="normal" in="SourceGraphic" in2="effect1_dropShadow" result="shape"/>
</filter>
<radialGradient id="paint0_radial" cx="0" cy="0" r="1" gradientUnits="userSpaceOnUse" gradientTransform="translate(358.198 617.184) rotate(-171.074) scale(190.221 199.026)">
<stop offset="0.248661" stop-color="#3999E9"/>
<stop offset="1" stop-color="white" stop-opacity="0"/>
</radialGradient>
<radialGradient id="paint1_radial" cx="0" cy="0" r="1" gradientUnits="userSpaceOnUse" gradientTransform="translate(507.477 692.246) rotate(-171.558) scale(251.828 249.422)">
<stop offset="0.248661" stop-color="#3EDDB6"/>
<stop offset="1" stop-color="white" stop-opacity="0"/>
</radialGradient>
<linearGradient id="paint2_linear" x1="-1.63481e-05" y1="374" x2="667.483" y2="374" gradientUnits="userSpaceOnUse">
<stop offset="0.400982" stop-color="#5EC9BF"/>
<stop offset="0.94599" stop-color="#39A5DA"/>
</linearGradient>
</defs>
</svg>
