<svg width="1440" height="405" viewBox="0 0 1440 405" fill="none" xmlns="http://www.w3.org/2000/svg">
<mask id="mask0" mask-type="alpha" maskUnits="userSpaceOnUse" x="0" y="0" width="1440" height="405">
<rect width="1440" height="405" fill="#C4C4C4"/>
</mask>
<g mask="url(#mask0)">
<rect y="-50" width="1440" height="517" fill="url(#paint0_linear)"/>
</g>
<mask id="mask1" mask-type="alpha" maskUnits="userSpaceOnUse" x="0" y="0" width="999" height="405">
<mask id="mask2" maskUnits="userSpaceOnUse" x="0" y="0" width="999" height="405">
<rect width="999" height="405" fill="#C4C4C4"/>
</mask>
<g mask="url(#mask2)">
<rect y="-50" width="1440" height="517" fill="url(#paint1_linear)"/>
</g>
</mask>
<g mask="url(#mask1)">
<path fill-rule="evenodd" clip-rule="evenodd" d="M598.227 -55L555.63 186.153H512.422L547.281 -11.2179H291.661L247.774 230.406H117.058C44.0449 230.406 -26.8806 292.362 -41.0368 368.519C-47.6889 404.279 -40.5443 437.446 -20.9164 461.899C-2.01934 485.435 26.6604 498.4 59.8466 498.4H325.664C399.013 498.4 469.614 436.533 483.047 360.485L489.535 323.739H532.742L524.863 368.322C507.932 464.19 418.574 542.182 325.664 542.182H59.8466C13.7549 542.182 -26.564 523.574 -53.6804 489.794C-81.5277 455.089 -91.8732 409.097 -82.7901 360.287C-64.9835 264.528 24.6632 186.624 117.058 186.624H212.477L256.364 -55H598.227ZM213.545 280.038C204.223 293.68 196.383 308.368 190.419 323.82H99.9201C76.8254 323.82 53.5353 344.272 49.0797 368.488C47.1529 378.905 49.0836 388.352 54.5124 395.107C59.6324 401.474 67.6133 404.98 76.9934 404.98H340.986C364.088 404.98 387.23 384.589 391.537 360.454L398.072 323.74H441.29L433.349 368.347C425.313 413.445 384.748 448.762 340.986 448.762H76.9934C54.7156 448.762 35.0994 439.621 21.764 423.021C8.31522 406.285 3.04671 383.43 7.31076 360.309C15.6044 315.307 56.2868 280.038 99.9201 280.038H213.545ZM492.103 38.4031L465.796 186.156H422.581L441.091 82.1851H364.127L343.26 190.089C327.232 193.538 311.582 199.173 296.703 206.684L329.26 38.4031H492.103Z" fill="white" fill-opacity="0.14"/>
<path fill-rule="evenodd" clip-rule="evenodd" d="M642.542 186.416C649.205 186.416 655.735 186.863 662.148 187.64C697.984 191.999 729.426 208.357 752.49 234.874C753.546 236.094 754.626 237.289 755.644 238.549C758.463 242.023 761.051 245.629 763.515 249.308C764.135 250.23 764.786 251.128 765.379 252.058L765.663 252.529C778.852 273.431 786.599 297.509 788.524 323.318C789.6 337.768 788.856 352.75 786.236 368.017C769.764 463.932 680.924 541.962 588.204 541.962H492.533L449.964 783.598H104.773L148.456 542.437H191.602L155.84 739.817H414.577L457.145 498.181H588.204C661.329 498.181 731.441 436.364 744.486 360.373C748.763 335.522 746.42 311.919 737.968 291.608C734.217 282.592 729.27 274.22 723.145 266.677C714.42 255.93 703.629 247.509 691.43 241.399C676.928 234.146 660.398 230.205 642.542 230.205H380.164C307.382 230.205 236.95 292.116 223.165 368.222L216.455 405.241L173.399 404.803L181.477 360.172C198.845 264.362 287.971 186.416 380.156 186.416H642.542ZM406.553 523.257L375.957 690.186H212.065L238.614 542.437H281.74L263.058 646.405H340.827L360.511 538.995C376.347 535.803 391.805 530.43 406.553 523.257ZM626.264 279.828C648.396 279.828 667.967 288.941 681.37 305.476C694.899 322.156 700.357 344.962 696.349 368.046C688.532 413.192 648.178 448.552 604.479 448.552H492.286C501.556 434.907 509.322 420.228 515.217 404.771H604.479C627.484 404.771 650.443 384.428 654.618 360.334C656.424 349.893 654.381 340.385 648.856 333.575C643.644 327.143 635.625 323.609 626.264 323.609H363.477C340.487 323.609 317.396 344.024 313.049 368.183L306.398 405.242H263.268L271.357 360.201C279.459 315.132 319.918 279.828 363.477 279.828H626.264Z" fill="white" fill-opacity="0.14"/>
</g>
<defs>
<linearGradient id="paint0_linear" x1="1440" y1="89.9998" x2="5.86355e-05" y2="85.9999" gradientUnits="userSpaceOnUse">
<stop stop-color="#39A5DA"/>
<stop offset="1" stop-color="#5EC9BF"/>
</linearGradient>
<linearGradient id="paint1_linear" x1="1440" y1="89.9998" x2="5.86355e-05" y2="85.9999" gradientUnits="userSpaceOnUse">
<stop stop-color="#39A5DA"/>
<stop offset="1" stop-color="#5EC9BF"/>
</linearGradient>
</defs>
</svg>
