<svg width="1080" height="364" viewBox="0 0 1080 364" fill="none" xmlns="http://www.w3.org/2000/svg">
<g clip-path="url(#clip0)">
<path d="M72.7873 199.46C68.5977 199.46 65.034 197.941 62.7451 195.177C60.3229 192.251 59.4595 188.154 60.3171 183.634C62.3105 173.134 72.712 164.263 83.0265 164.263H123.439C126.128 157.552 129.596 151.181 133.771 145.279H83.0265C63.5389 145.279 45.361 160.577 41.6697 180.088C39.7633 190.113 42.1159 200.022 48.1192 207.282C54.1225 214.543 62.8378 218.443 72.7873 218.443H190.681C210.226 218.443 228.346 203.128 231.927 183.576L235.474 164.234H216.172L213.274 180.152C211.35 190.617 201.013 199.46 190.675 199.46H72.7873Z" fill="#081F2C"/>
<path d="M246.42 104.571L258.166 40.505H185.442L170.903 113.466C177.5 110.215 184.477 107.799 191.671 106.275L200.995 59.4884H235.387L227.118 104.571H246.42Z" fill="#081F2C"/>
<path d="M183.837 258.954C225.327 258.954 265.264 225.13 272.797 183.582L276.315 164.251H257.018L254.121 180.181C248.124 213.135 216.589 239.965 183.837 239.965H65.1268C50.3097 239.965 37.5034 234.344 29.0605 224.139C20.2989 213.535 17.106 199.152 20.0787 183.646C26.4008 150.616 58.0688 123.758 90.6814 123.758H149.051L168.655 19.0124H282.811L267.24 104.571H286.537L305.561 0H152.888L133.29 104.774H90.6814C49.4173 104.774 9.3817 138.557 1.44295 180.105C-2.61334 201.273 2.02242 221.213 14.4405 236.262C26.5514 250.911 44.573 258.983 65.1384 258.983L183.837 258.954Z" fill="#081F2C"/>
<path d="M199.031 257.459L190.217 304.037H155.397L163.764 258.954H144.456L132.565 323.02H205.944L219.643 250.633C213.08 253.749 206.157 256.042 199.031 257.459Z" fill="#2BDCB1"/>
<path d="M342.682 156.196C336.678 149.028 327.917 145.076 318.008 145.076H200.364C180.859 145.076 162.744 160.386 159.117 179.926L155.495 199.46H174.809L177.764 183.391C179.706 172.914 190.043 164.06 200.364 164.06H317.996C322.186 164.06 325.779 165.595 328.108 168.383C330.582 171.338 331.498 175.458 330.692 179.972C328.821 190.402 318.524 199.245 308.244 199.245H268.26C265.6 205.956 262.155 212.328 257.998 218.229H308.226C327.789 218.229 345.857 202.896 349.369 183.316C351.159 173.308 348.72 163.416 342.664 156.185" fill="#2BDCB1"/>
<path d="M390.65 163.932C389.888 152.995 386.367 142.429 380.417 133.22L380.289 133.018C380.023 132.612 379.71 132.224 379.455 131.824C378.354 130.23 377.195 128.666 375.932 127.159C375.474 126.614 374.993 126.093 374.518 125.566C364.192 114.069 350.116 106.976 334.077 105.081C331.163 104.735 328.232 104.559 325.298 104.554H207.827C166.552 104.554 126.649 138.354 118.873 179.885L115.257 199.239L134.536 199.431L137.537 183.379C143.709 150.349 175.244 123.532 207.827 123.532H325.298C332.866 123.469 340.35 125.127 347.184 128.382C352.64 130.99 357.479 134.727 361.381 139.345C364.11 142.603 366.346 146.245 368.016 150.152C371.8 158.96 372.849 169.2 370.913 179.972C365.096 212.955 333.706 239.791 300.966 239.791H242.294L223.235 344.542H107.393L123.404 258.954H104.09L84.5332 363.525H239.078L258.137 258.745H300.966C342.479 258.745 382.254 224.91 389.625 183.316C390.781 176.923 391.123 170.411 390.644 163.932" fill="#2BDCB1"/>
<path d="M843.524 154.383L809.097 102.74H779.626L751.736 258.919H781.59L801.935 144.978L839.056 200.659L889.325 149.892L870.655 258.919H900.468L927.217 102.74H894.651L843.524 154.383Z" fill="#081F2C"/>
<path d="M506.793 104.426H449.032L444.558 133.597L422.602 258.108H451.952L460.581 209.154H492.602C521.425 209.154 548.046 187.314 553.209 159.447C555.857 145.134 552.502 131.47 543.769 120.976C534.898 110.302 521.761 104.426 506.793 104.426ZM524.525 154.133C521.929 168.145 507.309 179.978 492.602 179.978H465.726L473.908 133.62H506.793C511.139 133.62 517.195 134.669 521.344 139.652C525.307 144.393 525.261 150.147 524.525 154.133Z" fill="#081F2C"/>
<path d="M679.493 197.003C675.408 215.21 656.714 230.171 638.542 229.679C630.649 229.47 624.258 226.532 620.045 221.19C615.757 215.743 614.337 208.325 616.041 200.329L633.228 103.615H603.779L587.977 195.994C585.034 211.854 588.493 227.048 597.724 238.771C607.192 250.789 621.424 257.644 637.818 258.085C638.351 258.085 638.872 258.085 639.399 258.085C670.9 258.085 700.76 233.666 707.383 202.49L726.007 103.615H696.535L679.493 197.003Z" fill="#081F2C"/>
<path d="M1050.66 202.125L1045.34 229.169H989.869L1012 103.604H982.661L955.42 258.108H1069.58L1080.01 202.125H1050.66Z" fill="#081F2C"/>
<path d="M418.998 362.523C418.665 362.533 418.335 362.465 418.033 362.325C417.732 362.186 417.467 361.977 417.259 361.717C417.043 361.454 416.89 361.145 416.81 360.814C416.731 360.482 416.728 360.137 416.802 359.805L430.709 294.701C430.857 293.947 431.268 293.269 431.868 292.789C432.435 292.278 433.168 291.99 433.931 291.978H462.632C466.932 291.978 470.426 292.666 473.115 294.041C475.574 295.238 477.715 297.002 479.361 299.186C480.803 301.15 481.737 303.439 482.079 305.85C482.421 308.04 482.387 310.272 481.981 312.451C481.624 314.335 480.979 316.152 480.068 317.84C479.289 319.297 478.342 320.659 477.246 321.896C476.355 322.882 475.396 323.806 474.378 324.66C473.709 325.24 472.981 325.747 472.205 326.172C473.111 326.946 473.938 327.808 474.673 328.745C475.483 329.782 476.128 330.937 476.586 332.17C477.113 333.579 477.437 335.056 477.548 336.557C477.667 338.38 477.53 340.212 477.142 341.998C476.582 344.62 475.668 347.155 474.424 349.531C473.132 352.001 471.409 354.22 469.336 356.085C467.066 358.092 464.453 359.675 461.624 360.761C458.246 362.039 454.654 362.657 451.043 362.581L418.998 362.523ZM432.505 349.925H451.141C454.838 349.925 457.71 349.137 459.758 347.561C461.773 346.043 463.158 343.835 463.646 341.36C464.171 338.807 463.716 336.725 462.279 335.114C460.836 333.497 458.327 332.691 454.774 332.691H436.127L432.505 349.925ZM468.38 312.335C468.917 309.785 468.531 307.853 467.221 306.54C465.912 305.236 463.507 304.576 460.007 304.576H442.177L438.845 320.094H456.687C463.474 320.094 467.372 317.507 468.38 312.335Z" fill="#2BDCB1"/>
<path d="M487.323 335.919C488.081 332.281 489.265 328.745 490.852 325.384C492.319 322.229 494.312 319.347 496.745 316.86C499.17 314.407 502.065 312.47 505.258 311.164C508.879 309.728 512.75 309.027 516.644 309.101C519.935 309.058 523.193 309.763 526.171 311.164C528.912 312.451 531.323 314.346 533.223 316.704C535.109 319.097 536.417 321.893 537.048 324.874C537.764 328.121 537.748 331.486 537.001 334.725L536.091 339.263C535.885 340.016 535.447 340.685 534.84 341.175C534.27 341.684 533.535 341.971 532.771 341.98H499.11C498.767 343.326 498.803 344.74 499.214 346.066C499.596 347.209 500.271 348.232 501.173 349.033C502.138 349.873 503.275 350.492 504.505 350.846C505.86 351.249 507.269 351.444 508.683 351.426C510.503 351.469 512.319 351.25 514.077 350.777C515.378 350.407 516.616 349.847 517.751 349.114C518.383 348.67 519.061 348.297 519.774 348.001C520.422 347.787 521.102 347.687 521.784 347.706H529.845C530.177 347.695 530.507 347.763 530.809 347.903C531.111 348.043 531.376 348.251 531.583 348.511C531.799 348.774 531.945 349.087 532.007 349.421C532.069 349.756 532.045 350.101 531.937 350.423C531.46 351.741 530.762 352.967 529.874 354.051C528.538 355.742 526.937 357.206 525.134 358.385C522.803 359.937 520.268 361.156 517.601 362.007C514.198 363.08 510.644 363.591 507.077 363.519C503.918 363.56 500.793 362.861 497.951 361.48C495.22 360.149 492.839 358.198 490.997 355.783C489.079 353.208 487.755 350.239 487.12 347.091C486.374 343.397 486.444 339.584 487.323 335.919ZM515.138 321.201C513.371 321.171 511.614 321.464 509.952 322.064C508.519 322.59 507.176 323.335 505.971 324.272C504.879 325.128 503.927 326.149 503.149 327.297C502.477 328.282 501.934 329.349 501.532 330.472H524.288C524.353 329.413 524.318 328.349 524.183 327.297C524.055 326.208 523.656 325.168 523.024 324.272C522.305 323.305 521.341 322.547 520.231 322.076C518.613 321.427 516.875 321.129 515.132 321.201H515.138Z" fill="#2BDCB1"/>
<path d="M562.602 343.58C562.191 345.66 562.249 347.323 562.747 348.563C563.245 349.803 564.677 350.429 567.029 350.429H575.194C575.523 350.412 575.852 350.477 576.15 350.618C576.448 350.758 576.707 350.97 576.904 351.235C577.105 351.505 577.246 351.816 577.317 352.146C577.388 352.476 577.388 352.817 577.315 353.147L575.901 359.805C575.753 360.559 575.342 361.237 574.742 361.717C574.175 362.227 573.442 362.513 572.679 362.523H566.23C559.91 362.523 555.222 360.892 552.166 357.632C549.11 354.371 548.22 349.786 549.495 343.875L554.13 322.209H547.466C547.134 322.219 546.804 322.151 546.502 322.011C546.201 321.871 545.935 321.663 545.728 321.403C545.513 321.14 545.361 320.83 545.284 320.499C545.207 320.167 545.206 319.823 545.282 319.491L546.684 312.839C546.839 312.073 547.273 311.391 547.901 310.927C548.489 310.417 549.238 310.129 550.016 310.115H556.663L560.18 293.682C560.325 292.926 560.736 292.247 561.339 291.769C561.91 291.262 562.644 290.977 563.408 290.964H571.062C571.394 290.958 571.723 291.028 572.024 291.168C572.325 291.307 572.591 291.513 572.801 291.769C573.015 292.034 573.167 292.343 573.245 292.674C573.323 293.005 573.326 293.349 573.253 293.682L569.718 310.11H582.721C583.056 310.09 583.39 310.154 583.693 310.295C583.997 310.437 584.26 310.652 584.46 310.921C584.663 311.191 584.804 311.502 584.874 311.832C584.944 312.162 584.941 312.504 584.865 312.833L583.452 319.485C583.307 320.241 582.896 320.92 582.293 321.398C581.725 321.907 580.992 322.193 580.23 322.203H567.232L562.602 343.58Z" fill="#2BDCB1"/>
<path d="M606.236 343.58C605.825 345.66 605.883 347.323 606.381 348.563C606.88 349.803 608.311 350.429 610.669 350.429H618.828C619.162 350.408 619.496 350.47 619.8 350.611C620.104 350.751 620.367 350.966 620.567 351.234C620.768 351.505 620.91 351.816 620.98 352.146C621.051 352.476 621.051 352.817 620.978 353.147L619.564 359.805C619.416 360.559 619.005 361.237 618.405 361.717C617.838 362.227 617.105 362.513 616.342 362.523H609.864C603.544 362.523 598.856 360.892 595.8 357.632C592.744 354.371 591.854 349.786 593.129 343.875L597.764 322.209H591.118C590.781 322.223 590.445 322.158 590.138 322.018C589.831 321.878 589.561 321.667 589.351 321.403C589.136 321.14 588.984 320.83 588.906 320.499C588.829 320.167 588.828 319.823 588.904 319.491L590.307 312.839C590.462 312.073 590.895 311.391 591.524 310.927C592.112 310.417 592.86 310.129 593.639 310.115H600.285L603.814 293.681C603.959 292.926 604.37 292.247 604.973 291.769C605.544 291.262 606.278 290.977 607.042 290.964H614.685C615.022 290.954 615.356 291.021 615.662 291.161C615.969 291.301 616.239 291.509 616.452 291.769C616.666 292.034 616.818 292.343 616.896 292.674C616.975 293.005 616.977 293.349 616.904 293.681L613.37 310.109H626.373C626.707 310.09 627.041 310.154 627.345 310.295C627.648 310.437 627.912 310.652 628.111 310.921C628.314 311.191 628.456 311.502 628.526 311.832C628.596 312.162 628.593 312.504 628.517 312.833L627.103 319.485C626.959 320.241 626.548 320.92 625.944 321.398C625.377 321.907 624.644 322.193 623.881 322.203H610.866L606.236 343.58Z" fill="#2BDCB1"/>
<path d="M631.426 335.919C632.19 332.281 633.378 328.745 634.967 325.384C636.432 322.231 638.42 319.349 640.848 316.86C643.275 314.407 646.172 312.469 649.366 311.164C652.985 309.728 656.854 309.026 660.747 309.101C664.04 309.058 667.299 309.763 670.279 311.164C673.018 312.453 675.427 314.347 677.326 316.704C679.211 319.098 680.521 321.894 681.156 324.874C681.867 328.122 681.849 331.486 681.104 334.725L680.2 339.263C679.989 340.015 679.55 340.683 678.943 341.175C678.375 341.684 677.642 341.97 676.88 341.98H643.212C642.873 343.326 642.909 344.739 643.317 346.066C643.701 347.209 644.378 348.232 645.281 349.033C646.244 349.873 647.379 350.492 648.607 350.846C649.965 351.249 651.375 351.445 652.791 351.426C654.611 351.468 656.428 351.249 658.186 350.777C659.485 350.405 660.723 349.845 661.86 349.114C662.489 348.67 663.166 348.297 663.876 348.001C664.524 347.787 665.205 347.687 665.887 347.706H673.953C674.286 347.694 674.616 347.762 674.918 347.901C675.22 348.041 675.485 348.25 675.692 348.511C675.909 348.773 676.055 349.086 676.118 349.421C676.181 349.755 676.158 350.1 676.051 350.423C675.571 351.741 674.872 352.967 673.982 354.051C672.65 355.743 671.051 357.207 669.248 358.385C666.908 359.939 664.363 361.158 661.686 362.007C658.293 363.078 654.749 363.591 651.192 363.525C648.028 363.565 644.898 362.865 642.053 361.48C639.323 360.149 636.942 358.198 635.1 355.783C633.182 353.208 631.858 350.239 631.223 347.091C630.483 343.396 630.552 339.585 631.426 335.919ZM659.241 321.201C657.476 321.17 655.72 321.463 654.06 322.064C652.627 322.59 651.284 323.335 650.079 324.272C648.983 325.123 648.029 326.142 647.251 327.291C646.575 328.274 646.032 329.341 645.635 330.466H668.414C668.476 329.407 668.441 328.344 668.309 327.291C668.176 326.203 667.778 325.165 667.15 324.266C666.423 323.292 665.448 322.53 664.328 322.058C662.71 321.417 660.974 321.125 659.235 321.201H659.241Z" fill="#2BDCB1"/>
<path d="M719.094 322.209C715.069 322.209 711.978 323.101 709.823 324.886C707.667 326.665 706.154 329.562 705.285 333.578L699.641 359.782C699.496 360.537 699.085 361.215 698.482 361.694C697.915 362.204 697.182 362.49 696.419 362.499H688.759C688.426 362.511 688.096 362.443 687.794 362.304C687.492 362.164 687.227 361.955 687.02 361.694C686.805 361.43 686.652 361.121 686.574 360.79C686.495 360.459 686.494 360.114 686.568 359.782L696.535 312.816C696.69 312.05 697.124 311.368 697.752 310.903C698.34 310.393 699.089 310.106 699.867 310.092H707.528C707.862 310.072 708.196 310.136 708.5 310.278C708.803 310.419 709.067 310.634 709.266 310.903C709.468 311.174 709.608 311.485 709.677 311.815C709.747 312.146 709.743 312.487 709.666 312.816L709.162 315.134C709.908 314.318 710.716 313.56 711.578 312.868C712.391 312.226 713.291 311.701 714.25 311.309C715.286 310.884 716.367 310.579 717.472 310.399C718.855 310.18 720.255 310.077 721.655 310.092H728.209C728.539 310.077 728.867 310.143 729.165 310.284C729.463 310.426 729.722 310.638 729.919 310.903C730.121 311.173 730.263 311.484 730.333 311.815C730.403 312.145 730.4 312.487 730.324 312.816L728.916 319.468C728.77 320.223 728.359 320.901 727.757 321.38C727.188 321.891 726.453 322.177 725.688 322.186L719.094 322.209Z" fill="#2BDCB1"/>
<path d="M820.275 291.978C820.608 291.97 820.938 292.039 821.24 292.18C821.541 292.321 821.806 292.529 822.014 292.789C822.228 293.053 822.38 293.363 822.458 293.694C822.536 294.025 822.539 294.369 822.466 294.701L808.558 359.805C808.411 360.56 808.001 361.237 807.4 361.717C806.831 362.229 806.095 362.515 805.331 362.523H797.218C796.886 362.533 796.556 362.465 796.254 362.325C795.952 362.186 795.687 361.977 795.48 361.717C795.263 361.455 795.108 361.146 795.029 360.814C794.95 360.483 794.947 360.137 795.022 359.805L800.666 333.201H770.192L764.548 359.805C764.4 360.559 763.989 361.237 763.389 361.717C762.821 362.227 762.088 362.513 761.326 362.523H753.178C752.846 362.537 752.514 362.476 752.208 362.345C751.902 362.214 751.63 362.015 751.411 361.763C751.191 361.493 751.036 361.176 750.957 360.837C750.879 360.497 750.88 360.144 750.959 359.805L764.866 294.701C765.008 293.944 765.42 293.265 766.025 292.789C766.591 292.276 767.325 291.988 768.088 291.978H776.241C776.574 291.968 776.905 292.037 777.207 292.178C777.509 292.318 777.773 292.528 777.98 292.789C778.197 293.052 778.351 293.361 778.431 293.692C778.51 294.024 778.512 294.369 778.438 294.701L772.892 320.598H803.332L808.871 294.701C809.017 293.946 809.428 293.268 810.03 292.789C810.598 292.276 811.334 291.988 812.099 291.978H820.275Z" fill="#2BDCB1"/>
<path d="M825.815 335.919C826.583 332.284 827.767 328.749 829.344 325.384C830.813 322.23 832.805 319.348 835.237 316.86C837.665 314.411 840.56 312.474 843.75 311.164C847.375 309.728 851.249 309.027 855.148 309.101C858.435 309.058 861.689 309.763 864.663 311.164C867.406 312.453 869.821 314.347 871.727 316.704C873.603 319.103 874.911 321.897 875.551 324.874C876.258 328.122 876.243 331.485 875.505 334.725L874.595 339.263C874.382 340.016 873.941 340.684 873.332 341.175C872.765 341.685 872.032 341.972 871.269 341.98H837.607C837.266 343.326 837.3 344.739 837.706 346.066C838.094 347.209 838.773 348.231 839.676 349.033C840.637 349.873 841.77 350.492 842.996 350.846C844.356 351.249 845.768 351.444 847.186 351.426C849.004 351.468 850.819 351.249 852.575 350.777C853.876 350.405 855.116 349.845 856.255 349.114C856.882 348.671 857.557 348.297 858.266 348.001C858.916 347.787 859.598 347.687 860.282 347.706H868.348C868.681 347.697 869.01 347.765 869.312 347.905C869.614 348.044 869.879 348.252 870.087 348.511C870.3 348.775 870.444 349.088 870.506 349.422C870.568 349.756 870.545 350.1 870.44 350.423C869.961 351.741 869.261 352.967 868.372 354.051C867.038 355.742 865.439 357.205 863.637 358.385C861.305 359.934 858.77 361.153 856.104 362.007C852.698 363.08 849.14 363.59 845.569 363.519C842.412 363.551 839.291 362.844 836.454 361.456C833.724 360.125 831.343 358.175 829.501 355.76C827.581 353.185 826.255 350.216 825.618 347.068C824.882 343.381 824.95 339.578 825.815 335.919ZM853.63 321.201C851.853 321.168 850.086 321.461 848.415 322.064C846.984 322.592 845.643 323.336 844.439 324.272C843.348 325.128 842.396 326.149 841.617 327.297C840.941 328.278 840.399 329.346 840.006 330.472H862.774C862.849 329.412 862.824 328.347 862.699 327.291C862.567 326.202 862.169 325.163 861.54 324.266C860.809 323.295 859.836 322.533 858.718 322.058C857.103 321.419 855.371 321.127 853.636 321.201H853.63Z" fill="#2BDCB1"/>
<path d="M910.673 309.113C912.57 309.083 914.465 309.278 916.317 309.692C917.827 310.037 919.295 310.542 920.698 311.199C921.802 311.721 922.834 312.383 923.769 313.169C924.455 313.745 925.067 314.405 925.588 315.134L926.087 312.816C926.234 312.061 926.645 311.383 927.246 310.903C927.814 310.391 928.549 310.103 929.314 310.092H936.975C937.308 310.083 937.638 310.152 937.94 310.292C938.242 310.433 938.507 310.642 938.713 310.903C938.929 311.167 939.081 311.476 939.161 311.807C939.24 312.138 939.243 312.483 939.171 312.816L929.193 359.782C929.047 360.537 928.636 361.215 928.034 361.694C927.467 362.204 926.734 362.491 925.971 362.499H918.328C917.995 362.51 917.665 362.442 917.363 362.302C917.061 362.162 916.796 361.954 916.589 361.694C916.372 361.431 916.218 361.122 916.138 360.791C916.059 360.46 916.057 360.114 916.131 359.782L916.636 357.464C915.95 358.287 915.209 359.061 914.416 359.782C913.518 360.579 912.497 361.224 911.391 361.694C910.017 362.283 908.583 362.722 907.115 363.004C905.137 363.364 903.128 363.531 901.117 363.502C898.171 363.555 895.259 362.863 892.651 361.491C890.214 360.193 888.111 358.346 886.509 356.096C884.857 353.76 883.676 351.125 883.032 348.337C882.325 345.381 882.24 342.311 882.783 339.321C882.986 338.312 883.218 337.142 883.484 335.797C883.751 334.453 884.023 333.271 884.295 332.268C885.096 329.191 886.245 326.214 887.72 323.397C889.151 320.643 891.022 318.141 893.26 315.991C895.492 313.867 898.086 312.159 900.92 310.95C904.012 309.678 907.331 309.053 910.673 309.113ZM897.165 333.497C896.85 334.42 896.596 335.362 896.406 336.319C896.238 337.194 896.088 338.133 895.96 339.141C895.674 340.983 895.723 342.862 896.105 344.687C896.409 346.094 897.047 347.408 897.965 348.517C898.864 349.534 900.012 350.299 901.297 350.736C902.724 351.213 904.22 351.448 905.724 351.432C908.937 351.466 912.073 350.448 914.654 348.534C917.3 346.603 919.197 343.815 920.344 340.172C920.74 338.914 921.06 337.633 921.3 336.336C921.607 334.795 921.822 333.514 921.949 332.506C922.363 329.029 921.658 326.275 919.834 324.243C918.011 322.211 915.461 321.203 912.185 321.218C908.961 321.203 905.816 322.218 903.209 324.115C900.54 326.008 898.525 329.135 897.165 333.497Z" fill="#2BDCB1"/>
<path d="M956.219 359.805C956.073 360.56 955.662 361.238 955.06 361.717C954.492 362.229 953.756 362.515 952.992 362.523H945.331C944.999 362.532 944.669 362.464 944.367 362.324C944.065 362.185 943.8 361.977 943.593 361.717C943.376 361.454 943.223 361.145 943.144 360.814C943.064 360.482 943.061 360.138 943.135 359.805L957.222 293.682C957.374 292.929 957.783 292.252 958.381 291.769C958.952 291.262 959.686 290.977 960.449 290.964H968.11C968.442 290.958 968.771 291.027 969.072 291.167C969.373 291.306 969.638 291.512 969.849 291.769C970.063 292.034 970.214 292.343 970.293 292.674C970.371 293.005 970.373 293.349 970.3 293.682L956.219 359.805Z" fill="#2BDCB1"/>
<path d="M990.877 343.58C990.478 345.66 990.524 347.323 991.034 348.563C991.544 349.803 992.964 350.429 995.316 350.429H1003.51C1003.84 350.408 1004.18 350.47 1004.48 350.611C1004.79 350.751 1005.05 350.966 1005.25 351.235C1005.45 351.506 1005.59 351.817 1005.66 352.147C1005.73 352.476 1005.73 352.818 1005.65 353.147L1004.25 359.805C1004.1 360.56 1003.69 361.238 1003.09 361.717C1002.52 362.229 1001.78 362.515 1001.02 362.523H994.569C988.256 362.523 983.572 360.892 980.517 357.632C977.461 354.371 976.57 349.786 977.845 343.875L982.481 322.209H975.834C975.502 322.219 975.172 322.152 974.87 322.012C974.568 321.872 974.303 321.664 974.096 321.403C973.878 321.141 973.724 320.832 973.644 320.501C973.565 320.169 973.563 319.824 973.638 319.491L975.052 312.839C975.202 312.074 975.632 311.392 976.257 310.927C976.847 310.419 977.595 310.132 978.372 310.115H984.967L988.444 293.682C988.591 292.927 989.002 292.249 989.603 291.769C990.173 291.265 990.904 290.979 991.666 290.964H999.332C999.664 290.956 999.994 291.024 1000.3 291.164C1000.6 291.304 1000.86 291.511 1001.07 291.769C1001.29 292.032 1001.44 292.341 1001.52 292.672C1001.6 293.004 1001.6 293.349 1001.53 293.682L997.999 310.11H1011.04C1011.38 310.09 1011.71 310.154 1012.01 310.295C1012.32 310.437 1012.58 310.652 1012.78 310.921C1012.98 311.193 1013.12 311.504 1013.19 311.834C1013.26 312.163 1013.25 312.504 1013.18 312.833L1011.77 319.485C1011.63 320.241 1011.22 320.919 1010.61 321.398C1010.05 321.909 1009.31 322.195 1008.55 322.203H995.554L990.877 343.58Z" fill="#2BDCB1"/>
<path d="M1063.04 359.805C1062.89 360.561 1062.48 361.24 1061.88 361.717C1061.32 362.227 1060.58 362.514 1059.82 362.523H1052.19C1051.85 362.533 1051.52 362.465 1051.22 362.325C1050.92 362.186 1050.65 361.977 1050.45 361.717C1050.23 361.455 1050.08 361.146 1050 360.814C1049.92 360.483 1049.91 360.137 1049.99 359.805L1055.43 334.204C1056.31 330.175 1056.06 326.951 1054.68 324.533C1053.3 322.114 1050.64 320.909 1046.71 320.917C1045.02 320.887 1043.34 321.192 1041.77 321.815C1040.19 322.437 1038.76 323.365 1037.55 324.544C1034.99 326.959 1033.27 330.182 1032.4 334.215L1026.97 359.816C1026.82 360.571 1026.41 361.249 1025.81 361.729C1025.24 362.241 1024.51 362.527 1023.74 362.534H1016.09C1015.76 362.544 1015.43 362.477 1015.13 362.337C1014.82 362.197 1014.56 361.989 1014.35 361.729C1014.13 361.466 1013.98 361.157 1013.9 360.826C1013.82 360.494 1013.82 360.149 1013.89 359.816L1027.97 293.682C1028.12 292.928 1028.53 292.251 1029.13 291.769C1029.7 291.263 1030.43 290.977 1031.19 290.964H1038.86C1039.19 290.958 1039.52 291.028 1039.82 291.168C1040.12 291.307 1040.39 291.513 1040.6 291.769C1040.81 292.033 1040.96 292.343 1041.04 292.674C1041.12 293.005 1041.12 293.35 1041.04 293.682L1036.41 315.151C1038.15 313.206 1040.3 311.674 1042.71 310.666C1045.41 309.58 1048.3 309.05 1051.22 309.107C1054.38 309.025 1057.52 309.679 1060.39 311.019C1062.8 312.178 1064.87 313.948 1066.39 316.153C1067.87 318.42 1068.82 320.997 1069.15 323.686C1069.55 326.694 1069.41 329.748 1068.75 332.709L1063.04 359.805Z" fill="#2BDCB1"/>
</g>
<defs>
<clipPath id="clip0">
<rect width="1080" height="363.525" fill="white"/>
</clipPath>
</defs>
</svg>
