<svg width="51" height="51" viewBox="0 0 51 51" fill="none" xmlns="http://www.w3.org/2000/svg">
<path d="M0 25.5C0 23.4136 4.26189 21.9335 4.77902 19.9542C5.29615 17.9748 2.38951 14.6045 3.40594 12.8213C4.42238 11.0381 8.89825 11.8584 10.3427 10.414C11.7871 8.96955 10.9668 4.52933 12.75 3.49506C14.5332 2.4608 17.9392 5.40311 19.8829 4.86815C21.8266 4.33318 23.3423 0.0712891 25.4465 0.0712891C27.5507 0.0712891 29.0129 4.35101 30.9923 4.86815C32.9717 5.38528 36.4489 2.47863 38.1252 3.49506C39.8014 4.5115 39.0881 8.96955 40.5325 10.414C41.9769 11.8584 46.435 11.0381 47.4692 12.8213C48.5035 14.6045 45.5434 18.0283 46.0962 19.9542C46.6489 21.88 50.8752 23.4136 50.8752 25.5C50.8752 27.5863 46.6133 29.0664 46.0962 31.0636C45.579 33.0608 48.4857 36.4132 47.4692 38.1965C46.4528 39.9797 41.9769 39.1594 40.5325 40.6038C39.0881 42.0482 39.9084 46.4884 38.1252 47.5227C36.342 48.557 32.936 45.6147 30.9923 46.1496C29.0486 46.6846 27.5507 50.9465 25.4465 50.9465C23.3423 50.9465 21.8801 46.6667 19.8829 46.1496C17.8857 45.6325 14.4441 48.5391 12.75 47.5227C11.0559 46.5063 11.7871 42.0482 10.3427 40.6038C8.89825 39.1594 4.44021 39.9797 3.40594 38.1965C2.37168 36.4132 5.31399 32.9895 4.77902 31.0636C4.24406 29.1377 0 27.6042 0 25.5Z" fill="#39A5DA"/>
<path d="M22 29.4925L18.1536 25.6461L17.8 25.2925L17.4465 25.6461L16.0465 27.0461L15.6929 27.3996L16.0465 27.7532L21.6465 33.3532L22 33.7067L22.3536 33.3532L34.3536 21.3532L34.7071 20.9996L34.3536 20.6461L32.9536 19.2461L32.6 18.8925L32.2465 19.2461L22 29.4925Z" fill="#FCFCFC" stroke="white"/>
</svg>
